<?xml version="1.0" encoding="UTF-8" standalone="no"?>
<!-- Created with Inkscape (http://www.inkscape.org/) -->

<svg
   xmlns:dc="http://purl.org/dc/elements/1.1/"
   xmlns:cc="http://creativecommons.org/ns#"
   xmlns:rdf="http://www.w3.org/1999/02/22-rdf-syntax-ns#"
   xmlns:svg="http://www.w3.org/2000/svg"
   xmlns="http://www.w3.org/2000/svg"
   xmlns:sodipodi="http://sodipodi.sourceforge.net/DTD/sodipodi-0.dtd"
   xmlns:inkscape="http://www.inkscape.org/namespaces/inkscape"
   width="210mm"
   height="297mm"
   viewBox="0 0 210 297"
   version="1.1"
   id="svg8"
   sodipodi:docname="diagrama_distancias.svg"
   inkscape:version="0.92.4 (5da689c313, 2019-01-14)">
  <defs
     id="defs2" />
  <sodipodi:namedview
     id="base"
     pagecolor="#ffffff"
     bordercolor="#666666"
     borderopacity="1.0"
     inkscape:pageopacity="0.0"
     inkscape:pageshadow="2"
     inkscape:zoom="4"
     inkscape:cx="401.62224"
     inkscape:cy="1004.0671"
     inkscape:document-units="mm"
     inkscape:current-layer="layer1"
     showgrid="false"
     inkscape:snap-object-midpoints="true"
     inkscape:snap-center="true"
     inkscape:snap-bbox="false"
     inkscape:bbox-nodes="true"
     inkscape:snap-bbox-edge-midpoints="true"
     inkscape:snap-bbox-midpoints="true"
     inkscape:bbox-paths="true"
     inkscape:object-paths="true"
     inkscape:snap-intersection-paths="true"
     inkscape:snap-smooth-nodes="true"
     inkscape:snap-midpoints="true"
     inkscape:window-width="1366"
     inkscape:window-height="728"
     inkscape:window-x="0"
     inkscape:window-y="20"
     inkscape:window-maximized="1" />
  <metadata
     id="metadata5">
    <rdf:RDF>
      <cc:Work
         rdf:about="">
        <dc:format>image/svg+xml</dc:format>
        <dc:type
           rdf:resource="http://purl.org/dc/dcmitype/StillImage" />
        <dc:title></dc:title>
      </cc:Work>
    </rdf:RDF>
  </metadata>
  <g
     inkscape:label="Layer 1"
     inkscape:groupmode="layer"
     id="layer1">
    <circle
       style="opacity:1;fill:none;fill-opacity:1;stroke:#000000;stroke-width:0.1;stroke-linecap:butt;stroke-linejoin:round;stroke-miterlimit:4;stroke-dasharray:none;stroke-dashoffset:0;stroke-opacity:1;paint-order:stroke fill markers"
       id="path815"
       cx="110.84151"
       cy="115.28794"
       r="74.555801" />
    <circle
       r="88.162941"
       cy="115.28794"
       cx="110.84151"
       id="circle817"
       style="opacity:1;fill:none;fill-opacity:1;stroke:#000000;stroke-width:0.1;stroke-linecap:butt;stroke-linejoin:round;stroke-miterlimit:4;stroke-dasharray:0.4,0.8;stroke-dashoffset:0;stroke-opacity:1;paint-order:stroke fill markers" />
    <path
       style="fill:none;stroke:#000000;stroke-width:0.2;stroke-linecap:butt;stroke-linejoin:miter;stroke-miterlimit:4;stroke-dasharray:none;stroke-opacity:1"
       d="m 110.84151,40.732138 0,-4.521535"
       id="path821"
       inkscape:connector-curvature="0"
       sodipodi:nodetypes="cc" />
    <path
       style="fill:none;stroke:#000000;stroke-width:0.2;stroke-linecap:round;stroke-linejoin:bevel;stroke-miterlimit:4;stroke-dasharray:none;stroke-opacity:1"
       d="m 111.90993,35.924321 -2.13683,0.572562"
       id="path823"
       inkscape:connector-curvature="0" />
    <path
       inkscape:connector-curvature="0"
       id="path825"
       d="m 111.28956,36.658649 -0.89609,-0.896094"
       style="fill:none;stroke:#000000;stroke-width:0.2;stroke-linecap:round;stroke-linejoin:bevel;stroke-miterlimit:4;stroke-dasharray:none;stroke-opacity:1" />
    <path
       inkscape:connector-curvature="0"
       id="path838"
       d="m 110.11467,37.742559 -0.68315,-2.49135"
       style="fill:none;stroke:#000000;stroke-width:0.1;stroke-linecap:butt;stroke-linejoin:miter;stroke-miterlimit:4;stroke-dasharray:none;stroke-opacity:1" />
    <path
       style="fill:none;stroke:#000000;stroke-width:0.1;stroke-linecap:butt;stroke-linejoin:miter;stroke-miterlimit:4;stroke-dasharray:none;stroke-opacity:1"
       d="m 111.9419,37.773473 -1.30469,-2.229648"
       id="path857"
       inkscape:connector-curvature="0" />
    <path
       style="fill:none;stroke:#000000;stroke-width:0.1;stroke-linecap:butt;stroke-linejoin:miter;stroke-miterlimit:4;stroke-dasharray:none;stroke-opacity:1"
       d="m 109.74112,36.877378 1.30469,-2.229646"
       id="path859"
       inkscape:connector-curvature="0" />
    <path
       inkscape:connector-curvature="0"
       id="path863"
       d="m 111.56835,37.169995 0.68315,-2.491348"
       style="fill:none;stroke:#000000;stroke-width:0.1;stroke-linecap:butt;stroke-linejoin:miter;stroke-miterlimit:4;stroke-dasharray:none;stroke-opacity:1" />
    <path
       style="fill:#000000;stroke-width:1"
       d="m 96.867743,30.665516 c -0.136755,-0.05505 -0.29557,-0.167861 -0.457569,-0.19011 -0.10177,-0.07308 -0.254902,-0.148601 -0.382983,-0.174838 -0.116541,-0.109425 -0.290628,-0.156904 -0.401516,-0.01956 0.0072,-0.239633 -0.210717,-0.270898 -0.377377,-0.340417 0.0995,-0.09626 -0.06588,-0.172272 -0.11162,-0.299145 -0.106591,0.262343 -0.359511,0.168846 -0.474034,0.08202 -0.169952,-0.06877 -0.273873,-0.129502 -0.418829,-0.183953 -0.09761,-0.03256 -0.238065,-0.11131 -0.297634,-0.129844 -0.167966,-0.07986 -0.325356,-0.147379 -0.48497,-0.218455 -5.23e-4,-0.02511 -0.317436,-0.07037 -0.09938,-0.18285 0.139207,-0.190979 0.254124,-0.225381 0.426101,-0.39695 0.102113,0.05598 0.278105,0.131881 0.373956,0.168814 0.100811,0.04343 0.235172,0.120691 0.377325,0.163855 0.11788,0.0743 0.429651,0.187166 0.521538,0.247733 0.0972,0.02411 0.271992,0.104462 0.317643,0.149859 0.116127,0.0298 0.250213,-0.226593 0.343772,-0.28666 -0.04756,-0.08795 0.250706,-0.0698 0.163916,-0.191933 0.08737,0.138336 0.01016,-0.114117 -0.143623,-0.08735 -0.252063,-0.09818 -0.539177,-0.263218 -0.765875,-0.34242 -0.02616,0.141685 -0.384028,-0.0044 -0.226681,-0.0699 0.135577,-0.154093 0.256071,-0.208076 0.399523,-0.359193 0.218211,-0.153258 -0.225388,-0.08886 -0.188668,-0.251204 -0.290521,-0.0054 0.166239,-0.298642 0.201629,-0.201482 0.180152,0.0211 0.260481,0.216109 0.353496,0.118933 0.08605,-0.105443 0.199757,-0.161925 0.271238,-0.272061 0.09605,-0.04775 0.206257,-0.279354 0.353997,-0.160759 0.269271,0.07597 -0.38796,0.283822 -0.03537,0.341904 0.106369,0.06566 0.343627,-0.242638 0.197157,-0.298847 -0.116354,0.0012 -0.15233,-0.109669 -0.03017,-0.05784 -0.100013,-0.320382 0.250905,6.05e-4 0.413309,0.03389 0.19299,0.0064 0.464352,0.344559 0.598221,0.134231 0.09188,-0.133335 0.172549,-0.02074 0.205307,0.07548 0.127743,-0.05524 0.04358,-0.289352 0.19025,-0.200377 0.14646,-0.133667 -0.09599,-0.119284 -0.1,-0.227057 -0.0042,-0.183951 -0.215274,-0.136537 -0.32701,-0.238113 -0.147595,-0.07105 -0.317467,-0.130089 -0.454623,-0.198667 -0.126188,-0.06668 -0.242648,-0.11087 -0.358977,-0.167118 -0.09932,-0.07025 -0.407419,-0.09292 -0.1829,-0.220302 0.101146,-0.146048 0.320226,-0.354103 0.457501,-0.376629 0.105647,0.039 0.239928,0.11562 0.414368,0.189504 0.105707,0.04611 0.275089,0.122297 0.353863,0.151186 0.126782,0.071 0.246855,0.110437 0.377765,0.173866 0.122858,0.0585 0.207379,0.08467 0.299324,0.141836 0.180414,0.01059 0.166275,0.149752 0.01072,0.228764 -0.04896,0.106432 0.05088,-0.07612 0.137117,-0.01166 0.09967,0.104778 0.09532,0.383704 0.273852,0.146844 0.121841,-0.156956 0.272977,0.02466 0.368884,0.04363 0.138004,0.04347 0.269109,0.136939 0.437374,0.174333 0.05628,0.06758 0.198597,0.09978 0.340964,0.164975 0.128533,0.07837 0.279496,0.125501 0.402106,0.184327 0.10073,0.03288 0.2877,0.128737 0.0512,0.236171 -0.16126,0.09535 -0.274429,0.423565 -0.491128,0.294912 -0.0804,-0.03451 -0.213993,-0.09932 -0.343608,-0.159996 -0.120113,-0.04152 -0.234893,-0.10512 -0.310208,-0.142225 -0.128156,-0.02757 -0.304794,-0.153493 -0.366705,-0.143119 -0.109636,-0.09953 -0.271967,-0.111319 -0.366499,-0.183175 -0.217548,-0.03324 0.206764,0.439127 -0.08913,0.508588 -0.155038,0.02745 -0.08208,-0.731255 -0.323161,-0.416011 -0.08179,0.09064 -0.219078,0.175109 -0.163278,0.293267 -0.137487,-0.170386 -0.180962,0.127026 -0.209227,0.196976 -0.02195,0.05398 -0.143003,0.09453 -0.206669,0.04679 -0.0148,0.07555 -0.534825,0.308294 -0.217256,0.474969 0.09941,0.09844 0.172256,0.09577 0.207517,0.03161 -0.05922,0.14666 0.05777,0.340143 -0.02116,0.487696 -0.02973,-0.154433 -0.265125,-0.233849 -0.224357,-0.03665 0.08421,0.09422 -0.09984,0.0057 -0.101522,-0.0302 0.25515,-0.08629 -0.07286,-0.178945 -0.173088,-0.232498 0.0055,0.206708 -0.251952,0.283377 -0.348256,0.166219 0.07045,-0.145882 -0.269637,0.127233 -0.17097,0.233302 -0.05579,0.119476 -0.198571,0.131512 -0.229582,0.08636 -0.03465,0.0723 -0.05854,0.228211 -0.09408,0.07783 -0.09159,0.119155 -0.396202,0.267633 -0.09487,0.271086 0.121786,0.02655 0.28846,0.121372 0.404272,0.176837 0.110509,0.04687 0.24944,0.09131 0.327362,0.15118 0.166271,0.04343 0.232743,0.112725 0.394923,0.174792 0.116854,0.04475 0.207121,0.08293 0.332928,0.142389 0.24028,0.118396 -0.256052,0.308135 -0.315917,0.448557 -0.04218,0.02369 -0.06542,0.08619 -0.119982,0.08404 z m 0.214322,-0.220006 c -0.03599,-0.102166 -0.09547,0.02092 0,0 z m -0.06713,-0.01935 c -0.106795,-0.117375 -0.19824,-0.08789 -0.04782,-0.01919 0.05776,0.02015 0.0096,-0.04896 0.04782,0.01919 z m -0.1852,-0.07965 c -0.0029,-0.07326 -0.116041,-0.02897 -0.01343,-0.01493 z m -0.133797,-0.06338 c -0.02014,-0.08435 -0.139298,-0.03045 0.0047,0.0074 z m -0.111113,-0.04726 c 0.05941,-0.04554 -0.405578,-0.181315 -0.139489,-0.0672 0.0302,-0.01661 0.100656,0.06216 0.139489,0.0672 z m -0.350631,-0.164853 c -0.01639,-0.06715 -0.282106,-0.107654 0,0 z m -0.144424,-0.0631 c -0.07956,-0.129216 -0.214115,-0.04078 -0.04045,-0.03743 0.01951,0.01189 -0.02181,0.05717 0.04045,0.03743 z m -0.19402,-0.0818 c 0.01932,-0.04644 -0.207476,-0.08981 0,0 z m -0.105976,-0.05367 c -0.0057,-0.10257 -0.149975,-0.02177 0,0 z m -0.671808,-0.249951 c -0.146454,-0.125241 -0.196236,-0.04241 0,0 z m -0.187759,-0.07146 c 0.05571,-0.05944 -0.211108,-0.102459 0,0 z m -0.09107,-0.04081 c -0.01784,-0.07784 -0.157551,-0.06438 0,0 z m -0.11909,-0.05513 c -0.05216,-0.108093 -0.307477,-0.119065 -0.18508,-0.09371 0.06266,0.04073 0.128096,0.04738 0.18508,0.09371 z m -0.26377,-0.118791 c 0.02559,-0.09834 -0.08496,-0.0222 0,0 z m -0.240749,-0.10923 c -0.116276,-0.114479 -0.138703,-0.03904 -0.01001,0.0011 l 0.0055,4.4e-4 z m 0.07093,-0.06605 c 0.02531,-0.05846 -0.462523,-0.208344 -0.116682,-0.0671 0.0282,0.04964 0.09742,0.01056 0.116682,0.0671 z m -0.403718,-0.07798 c 0.06565,-0.04505 -0.14278,-0.04967 0,0 z m -0.117303,-0.0593 c -0.03351,-0.07808 -0.141499,-0.04363 -0.02659,-0.01949 -0.04856,0.0036 0.03123,0.03192 0.02659,0.01949 z m -0.130256,-0.05973 c -0.172929,-0.126809 -0.04347,-0.0012 0,0 z m 2.309288,-0.27339 c -0.0102,-0.07343 0.136486,-0.251546 0.204887,-0.125422 0.03037,0.212729 0.171791,-0.04917 0.191872,-0.120712 -0.04015,-0.01848 0.06171,-0.165743 -0.127361,-0.136711 -0.160304,-0.03249 -0.190602,-0.008 -0.259562,0.125439 -0.08233,0.09975 -0.191696,-0.136576 -0.131959,-0.259306 -0.132785,0.05899 -0.148915,0.16003 -0.209817,0.06506 -0.09066,-0.06291 -0.08079,-0.167829 -0.03562,-0.2296 -0.180672,-0.06871 -0.270693,0.142896 -0.390039,0.229886 -0.192141,0.15724 0.272738,0.179849 0.381009,0.279022 0.124505,0.06024 0.25302,0.124123 0.376594,0.172348 z m 0.449294,-0.511525 c 0.0028,-0.246246 -0.186998,-0.0222 -0.0075,-0.02142 l 0.0082,0.01063 z m -0.804705,-0.02324 c 0.04836,-0.108948 -0.08704,-0.05495 0,0 z m 1.112948,-0.01644 c 0.110785,-0.08771 0.314209,-0.189909 0.05106,-0.23424 -0.151627,-0.06415 -0.117041,0.222147 -0.05106,0.23424 z m -0.600283,-0.151512 c 0.02483,-0.205388 0.288558,-0.05783 0.180155,-0.293234 -0.20716,-0.128428 -0.423354,-0.193879 -0.523381,0.02805 -0.105404,0.04599 -0.12112,0.109457 -0.01865,0.152665 0.04002,-0.01451 0.286614,0.02752 0.339831,0.113846 l 0.02204,-0.0013 z m 0.516011,-0.0682 c 0.02133,-0.163767 -0.06535,-0.08009 0,0 z m 0.419657,-0.05709 c 0.102345,-0.09137 0.06279,-0.185608 0.179287,-0.162861 -0.06427,-0.08654 -0.314082,-0.186173 -0.471485,-0.219305 -0.09203,-0.114698 -0.392742,-0.105971 -0.292767,-0.01266 0.112485,-0.03269 0.03568,0.285627 0.251136,0.237586 0.104522,0.0699 0.220173,0.110041 0.333829,0.157238 z m 2.943022,-0.07324 c 0.06037,-0.05851 -0.116752,-0.04189 0,0 z m -0.165855,-0.08702 c -0.02657,-0.05598 -0.323621,-0.165656 -0.235804,-0.100027 0.0785,0.01884 0.146377,0.08084 0.235804,0.100027 z M 99.549673,27.57506 c -0.05144,-0.116775 -0.126134,0.02459 0,0 z m -0.127694,-0.04019 c 0.04129,-0.03577 -0.34657,-0.176095 -0.171723,-0.0789 0.0468,-0.0047 0.111391,0.05987 0.171723,0.0789 z m -0.233603,-0.107408 c -0.02696,-0.06006 -0.365421,-0.204814 -0.225342,-0.09661 0.09343,0.02843 0.14254,0.04871 0.225342,0.09661 z m -0.287897,-0.13581 c -0.01257,-0.05674 -0.274668,-0.109131 -0.08564,-0.04708 0.01491,0.02863 0.05457,0.04143 0.08564,0.04708 z m -0.687092,-0.09066 c 0.157612,-0.08141 0.16129,-0.262927 0.01579,-0.117276 -0.05286,-0.03056 -0.07841,0.172927 -0.01579,0.117276 z m 0.428147,-0.01577 c -0.04565,-0.105812 -0.314887,-0.114196 -0.08146,-0.05492 -0.03344,0.04466 0.111679,0.0108 0.08146,0.05492 z m -0.800266,-0.07169 c 0.0734,-0.10316 0.250595,-0.296307 0.01996,-0.10893 -0.02511,0.0088 -0.08367,0.09215 -0.01996,0.10893 z m 0.136435,-0.210362 c 0.126043,-1.44e-4 0.111951,-0.130291 0,0 z m -0.04625,-0.199062 c -0.07628,-0.100644 -0.261888,-0.115768 -0.05641,-0.0365 0.04657,-0.06111 0.038,0.07791 0.05641,0.0365 z m -0.573377,-0.163389 c -0.158977,-0.124588 -0.253422,-0.08269 0,0 z m -0.416891,-0.172258 c 0.05876,-0.07347 -0.160418,-0.0552 0,0 z m -0.32354,-0.15178 c -0.102189,-0.09929 -0.176544,-0.07541 -0.04181,-0.01461 z m -0.144743,-0.07076 c -0.03173,-0.08003 -0.118514,1.9e-5 0,0 z"
       id="path6167"
       inkscape:connector-curvature="0" />
    <path
       style="fill:none;stroke:#ff0000;stroke-width:0.2;stroke-linecap:butt;stroke-linejoin:miter;stroke-opacity:1;stroke-miterlimit:4;stroke-dasharray:none"
       d="M 96.393761,28.179101 110.84151,40.732138"
       id="path6171"
       inkscape:connector-curvature="0" />
    <path
       inkscape:connector-curvature="0"
       id="path6173"
       d="M 96.393761,40.734439 H 110.84151"
       style="fill:none;stroke:#ff0000;stroke-width:0.2;stroke-linecap:butt;stroke-linejoin:miter;stroke-miterlimit:4;stroke-dasharray:none;stroke-opacity:1"
       sodipodi:nodetypes="cc" />
    <path
       style="opacity:1;fill:none;fill-opacity:1;stroke:#ff0000;stroke-width:0.2;stroke-linecap:round;stroke-linejoin:bevel;stroke-miterlimit:4;stroke-dasharray:none;stroke-dashoffset:0;stroke-opacity:1;paint-order:stroke fill markers"
       id="path6175"
       sodipodi:type="arc"
       sodipodi:cx="110.84151"
       sodipodi:cy="40.73214"
       sodipodi:rx="2.2886808"
       sodipodi:ry="2.2886808"
       sodipodi:start="3.1439911"
       sodipodi:end="3.8518945"
       d="m 108.55283,40.72665 a 2.2886808,2.2886808 0 0 1 0.55348,-1.486874"
       sodipodi:open="true" />
  </g>
</svg>
